<?xml version="1.0" encoding="utf-8"?>
<svg version="1.1" id="Laag_1" x="0px" y="0px" viewBox="0 0 165.9 55.4" style="enable-background:new 0 0 165.9 55.4;" xmlns="http://www.w3.org/2000/svg">
  <style type="text/css">
	.st0{fill:#EC6717;}
</style>
  <g>
    <g id="Group_988_1_" transform="translate(-1118.408 -1655.728)">
      <g id="Group_491_2_" transform="translate(1182.689 1660.917)">
        <path id="Path_506_2_" d="M23.6,20.8c0,7-4.7,11.6-10.6,11.6c-2.9,0.1-5.7-1.2-7.4-3.6v11.8c0,0.3-0.2,0.5-0.5,0.5l0,0H0.5 c-0.3,0-0.5-0.2-0.5-0.5V10.3C0,10,0.2,9.8,0.5,9.8h3.4c0.2,0,0.4,0.1,0.5,0.3l0.8,2.1c0.1,0.3,0.4,0.4,0.7,0.3 c0.1,0,0.2-0.1,0.2-0.1c1.7-2,4.3-3.1,6.9-3C19,9.3,23.6,13.9,23.6,20.8z M17.8,20.8c0-4-2.5-6.7-6.1-6.7c-3.7,0-6.1,2.7-6.1,6.7 s2.4,6.7,6.1,6.7C15.3,27.6,17.8,24.9,17.8,20.8L17.8,20.8z" style="fill: rgb(255, 255, 255);"/>
        <path id="Path_507_2_" d="M28.1,0.8l4-0.8C32.5-0.1,33,0.2,33,0.6c0,0.1,0,0.1,0,0.2v30.7c0,0.3-0.2,0.5-0.5,0.5h-4.7 c-0.3,0-0.5-0.2-0.5-0.5l0,0V1.6C27.5,1.2,27.7,0.9,28.1,0.8z" style="fill: rgb(255, 255, 255);"/>
        <path id="Path_508_2_" d="M60.5,10.3v21.2c0,0.3-0.2,0.5-0.5,0.5h-3.4c-0.2,0-0.4-0.1-0.5-0.3l-0.8-2.1c-0.1-0.3-0.4-0.4-0.7-0.3 c-0.1,0-0.2,0.1-0.2,0.1c-1.7,2-4.3,3.1-6.9,3c-6,0-10.6-4.6-10.6-11.4c0-7,4.6-11.6,10.6-11.6c2.7-0.1,5.2,1,6.9,3 c0.2,0.2,0.5,0.2,0.7,0.1c0.1-0.1,0.1-0.1,0.1-0.2l0.8-2.1c0.1-0.2,0.3-0.3,0.5-0.3H60C60.3,9.8,60.5,10,60.5,10.3z M54.9,20.8 c0-4-2.5-6.7-6.1-6.7c-3.7,0-6.1,2.7-6.1,6.8c0,4,2.4,6.7,6.1,6.7C52.4,27.6,54.9,24.9,54.9,20.8L54.9,20.8z" style="fill: rgb(255, 255, 255);"/>
        <path id="Path_509_2_" d="M77.9,27.5V31c0,0.2-0.1,0.4-0.3,0.5c-1.7,0.6-3.5,0.9-5.4,0.9c-4,0-6.8-2.8-6.8-7V5 c0-0.4,0.3-0.7,0.6-0.8l4-0.8c0.4-0.1,0.9,0.2,0.9,0.6c0,0.1,0,0.1,0,0.2v5.5H77c0.3,0,0.5,0.2,0.5,0.5l0,0v3.6 c0,0.3-0.2,0.5-0.5,0.5l0,0h-6v9.9c-0.2,1.7,1,3.1,2.7,3.3c0.1,0,0.2,0,0.3,0c1.1,0,2.2-0.2,3.2-0.5c0.2-0.1,0.5,0,0.6,0.3 C77.8,27.4,77.9,27.5,77.9,27.5z" style="fill: rgb(255, 255, 255);"/>
        <path id="Path_510_2_" d="M101.1,22.9H85.5c0.4,3.1,2.1,5.1,5.3,5.1c2,0,3.9-0.9,5.2-2.4c0.1-0.2,0.4-0.2,0.6-0.1l3.5,1.8 c0.2,0.1,0.3,0.4,0.2,0.6c0,0,0,0,0,0.1c-2.2,2.9-5.7,4.5-9.4,4.4c-6.8,0-11.3-4.5-11.3-11.4c0-7,4.4-11.7,11.1-11.7 c6.6,0,11.1,4.5,11.1,11.2c0,0.6,0,1.3-0.1,1.9C101.6,22.7,101.4,22.9,101.1,22.9z M86,19.1h9.2c0.3,0,0.5-0.2,0.5-0.5 c0,0,0,0,0-0.1c-0.5-3-2.3-4.8-5.1-4.8c-2.8,0-4.5,1.7-5.1,4.8C85.5,18.8,85.7,19,86,19.1L86,19.1L86,19.1z" style="fill: rgb(255, 255, 255);"/>
      </g>
      <circle id="Ellipse_31_2_" class="st0" cx="1144.6" cy="1681.9" r="11.6" style="fill: rgb(255, 255, 255);"/>
      <g id="g72_2_" transform="translate(1118.408 1681.75)">
        <g id="g78_2_">
          <path id="path80_2_" class="st0" d="M0,0v23.4c0,3.3,2.7,6,6,6c1.6,0,3.1-0.6,4.2-1.7l4.4-4.4C5.9,18.6,0.4,9.8,0,0" style="fill: rgb(255, 255, 255);"/>
        </g>
      </g>
      <path id="Path_511_2_" d="M1144.6,1655.7c-14.5,0-26.2,11.7-26.2,26.2s11.7,26.2,26.2,26.2s26.2-11.7,26.2-26.2l0,0 C1170.7,1667.4,1159,1655.7,1144.6,1655.7z M1144.6,1700.7c-10.4,0-18.8-8.4-18.8-18.8s8.4-18.8,18.8-18.8s18.8,8.4,18.8,18.8l0,0 C1163.4,1692.3,1155,1700.7,1144.6,1700.7z" style="fill: rgb(255, 255, 255);"/>
    </g>
  </g>
</svg>